<svg data-v-423bf9ae="" xmlns="http://www.w3.org/2000/svg" viewBox="0 0 255.28907767238124 60" class="font"><!----><!----><defs data-v-423bf9ae=""><linearGradient data-v-423bf9ae="" gradientTransform="rotate(25)" id="d066988b-c4a6-4311-bac2-cb12db94796d" x1="0%" y1="0%" x2="100%" y2="0%"><stop data-v-423bf9ae="" offset="0%" style="stop-color: rgb(81, 6, 255); stop-opacity: 1;"></stop><stop data-v-423bf9ae="" offset="100%" style="stop-color: rgb(97, 203, 242); stop-opacity: 1;"></stop></linearGradient></defs><g data-v-423bf9ae="" id="2e774459-0dc2-4e05-adde-e12f621a353a" fill="url(#d066988b-c4a6-4311-bac2-cb12db94796d)" transform="matrix(4.282655176286797,0,0,4.282655176286797,5.56745505892836,-14.346893955297787)"><path d="M6.38 8.88L6.38 8.88L3.43 8.82L3.43 8.82Q2.58 8.81 2.02 8.36L2.02 8.36L2.02 8.36Q1.46 7.91 1.46 7.22L1.46 7.22L1.46 7.22Q1.46 6.29 2.83 5.36L2.83 5.36L2.83 5.36Q4.21 4.42 6.11 3.88L6.11 3.88L6.11 3.88Q8.01 3.35 9.38 3.35L9.38 3.35L9.38 3.35Q12.10 3.35 12.10 4.73L12.10 4.73L12.10 4.73Q12.10 5.18 11.14 6.40L11.14 6.40L11.14 6.40Q10.18 7.62 9.70 7.62L9.70 7.62L9.70 7.62Q9.60 7.62 9.51 7.53L9.51 7.53L9.51 7.53Q9.42 7.43 9.42 7.29L9.42 7.29L9.42 7.29Q9.42 7.15 9.77 6.78L9.77 6.78L9.77 6.78Q10.11 6.41 10.11 6.24L10.11 6.24L10.11 6.24Q10.11 6.12 9.79 6.12L9.79 6.12L9.79 6.12Q8.92 6.12 7.04 6.77L7.04 6.77L7.04 6.77Q5.17 7.42 5.17 7.80L5.17 7.80L5.17 7.80Q5.17 7.95 5.47 7.99L5.47 7.99L5.47 7.99Q5.78 8.02 6.57 8.04L6.57 8.04L6.57 8.04Q7.35 8.06 7.94 8.15L7.94 8.15L7.94 8.15Q8.53 8.23 8.90 8.39L8.90 8.39L8.90 8.39Q9.27 8.55 9.47 8.74L9.47 8.74L9.47 8.74Q9.67 8.92 9.80 9.16L9.80 9.16L9.80 9.16Q9.98 9.53 9.98 9.91L9.98 9.91L9.98 9.91Q9.98 10.92 8.60 11.94L8.60 11.94L8.60 11.94Q7.22 12.96 5.29 13.58L5.29 13.58L5.29 13.58Q3.35 14.20 1.83 14.20L1.83 14.20L1.83 14.20Q-1.30 14.20-1.30 12.22L-1.30 12.22L-1.30 12.22Q-1.30 11.31 0.14 10.72L0.14 10.72L0.14 10.72Q0.60 11.13 2.17 11.13L2.17 11.13L2.17 11.13Q3.32 11.06 4.28 10.80L4.28 10.80L4.28 10.80Q5.25 10.54 5.80 10.23L5.80 10.23L5.80 10.23Q6.34 9.91 6.65 9.63L6.65 9.63L6.65 9.63Q6.96 9.34 7 9.14L7 9.14L7 9.14Q6.97 8.88 6.38 8.88ZM13.58 12.87L13.58 12.87L13.58 12.87Q13.58 12.94 13.68 12.96L13.68 12.96L13.68 12.96Q13.78 12.96 14.36 12.56L14.36 12.56L14.36 12.56Q14.94 12.17 15.02 12.12L15.02 12.12L15.02 12.12Q15.09 12.08 15.16 12.08L15.16 12.08L15.16 12.08Q15.36 12.08 15.36 12.27L15.36 12.27L15.36 12.27Q15.36 12.46 14.37 13.10L14.37 13.10L14.37 13.10Q13.38 13.75 12.98 13.75L12.98 13.75L12.98 13.75Q12.81 13.75 12.62 13.61L12.62 13.61L12.62 13.61Q12.43 13.47 12.43 13.28L12.43 13.28L12.43 13.28Q12.43 13.09 12.53 12.87L12.53 12.87L12.53 12.87Q12.63 12.64 12.63 12.56L12.63 12.56L12.63 12.56Q12.63 12.49 12.59 12.49L12.59 12.49L12.59 12.49Q12.54 12.49 12.50 12.52L12.50 12.52L12.50 12.52Q11.14 13.54 10.50 13.54L10.50 13.54L10.50 13.54Q10.14 13.54 9.93 13.27L9.93 13.27L9.93 13.27Q9.72 13.01 9.67 12.74L9.67 12.74L9.65 12.47L9.65 12.47Q9.65 12.01 10.00 11.40L10.00 11.40L10.00 11.40Q10.36 10.79 10.94 10.24L10.94 10.24L10.94 10.24Q11.52 9.69 12.37 9.31L12.37 9.31L12.37 9.31Q13.22 8.93 14.10 8.93L14.10 8.93L14.10 8.93Q14.57 8.93 14.99 9.18L14.99 9.18L14.99 9.18Q15.40 9.44 15.40 9.77L15.40 9.77L15.40 9.77Q15.40 10.11 14.74 10.18L14.74 10.18L14.74 10.18Q14.25 10.29 13.13 10.98L13.13 10.98L13.13 10.98Q12.00 11.68 12.00 12.04L12.00 12.04L12.00 12.04Q12.00 12.19 12.15 12.19L12.15 12.19L12.15 12.19Q12.43 12.19 13.48 11.40L13.48 11.40L13.48 11.40Q14.52 10.60 14.73 10.60L14.73 10.60L14.73 10.60Q14.94 10.60 14.94 10.85L14.94 10.85L14.94 10.85Q14.94 11.03 14.80 11.19L14.80 11.19L14.80 11.19Q14.67 11.35 14.62 11.42L14.62 11.42L14.62 11.42Q14.50 11.56 14.04 12.05L14.04 12.05L14.04 12.05Q13.58 12.53 13.58 12.87ZM17.46 12.11L17.46 12.11L17.46 12.11Q17.33 12.11 15.89 13.80L15.89 13.80L15.89 13.80Q14.45 15.50 14.45 15.74L14.45 15.74L14.45 15.74Q14.45 15.86 14.64 15.86L14.64 15.86L14.64 15.86Q14.84 15.86 15.29 15.56L15.29 15.56L15.29 15.56Q15.74 15.26 16.25 14.78L16.25 14.78L16.25 14.78Q16.76 14.31 17.16 13.62L17.16 13.62L17.16 13.62Q17.56 12.92 17.56 12.25L17.56 12.25L17.56 12.25Q17.56 12.11 17.46 12.11ZM21.04 9.97L21.04 9.97L21.04 9.97Q21.04 10.11 20.31 10.58L20.31 10.58L20.31 10.58Q19.59 11.05 18.86 11.44L18.86 11.44L18.12 11.84L18.12 11.84Q18.23 12.12 18.23 12.53L18.23 12.53L18.23 12.53Q18.23 13.36 17.55 14.27L17.55 14.27L17.55 14.27Q16.87 15.18 15.93 15.83L15.93 15.83L15.93 15.83Q14.99 16.49 14.03 16.93L14.03 16.93L14.03 16.93Q13.06 17.36 12.49 17.36L12.49 17.36L12.49 17.36Q12.17 17.36 11.98 17.12L11.98 17.12L11.98 17.12Q11.80 16.87 11.80 16.51L11.80 16.51L11.80 16.51Q11.80 16.14 11.97 15.79L11.97 15.79L11.97 15.79Q12.40 14.80 16.66 10.22L16.66 10.22L16.66 10.22Q16.93 9.94 19.24 7.25L19.24 7.25L19.24 7.25Q21.55 4.55 21.66 4.42L21.66 4.42L21.66 4.42Q21.77 4.28 21.95 4.11L21.95 4.11L21.95 4.11Q22.13 3.93 22.44 3.72L22.44 3.72L22.44 3.72Q22.74 3.51 22.92 3.51L22.92 3.51L22.92 3.51Q23.18 3.51 23.18 3.95L23.18 3.95L23.18 3.95Q23.18 4.75 22.64 5.84L22.64 5.84L22.64 5.84Q22.46 6.19 20.49 8.51L20.49 8.51L20.49 8.51Q18.52 10.84 18.48 10.88L18.48 10.88L18.48 10.88Q18.44 10.93 18.44 11.00L18.44 11.00L18.44 11.00Q18.44 11.06 18.49 11.06L18.49 11.06L18.49 11.06Q18.73 11.06 19.77 10.42L19.77 10.42L19.77 10.42Q20.80 9.77 20.85 9.77L20.85 9.77L20.85 9.77Q21.04 9.77 21.04 9.97ZM21.55 10.71L21.55 10.71L22.23 10.64L22.23 10.64Q22.71 10.64 22.71 11.12L22.71 11.12L22.71 11.12Q22.71 11.37 22.25 11.68L22.25 11.68L22.25 11.68Q21.78 11.98 21.32 12.24L21.32 12.24L21.32 12.24Q20.85 12.50 20.85 12.64L20.85 12.64L20.85 12.64Q20.85 12.74 21.07 12.77L21.07 12.77L21.07 12.77Q21.56 12.77 22.93 11.98L22.93 11.98L22.93 11.98Q24.30 11.20 24.40 11.20L24.40 11.20L24.40 11.20Q24.60 11.20 24.60 11.40L24.60 11.40L24.60 11.40Q24.58 11.54 23.71 12.09L23.71 12.09L23.71 12.09Q22.83 12.64 21.66 13.15L21.66 13.15L21.66 13.15Q20.50 13.66 19.88 13.66L19.88 13.66L19.88 13.66Q18.91 13.66 18.91 12.64L18.91 12.64L18.91 12.64Q18.91 12.35 19.31 12.00L19.31 12.00L19.31 12.00Q19.71 11.65 20.11 11.40L20.11 11.40L20.11 11.40Q20.51 11.14 20.51 11.08L20.51 11.08L20.51 11.08Q20.51 11.02 20.31 10.93L20.31 10.93L20.31 10.93Q19.73 10.68 19.73 10.26L19.73 10.26L19.73 10.26Q19.73 9.48 21.04 8.77L21.04 8.77L21.04 8.77Q22.34 8.06 23.46 8.06L23.46 8.06L23.46 8.06Q24.08 8.06 24.49 8.29L24.49 8.29L24.49 8.29Q24.89 8.53 24.89 9.00L24.89 9.00L24.89 9.00Q24.89 9.46 24.24 9.87L24.24 9.87L24.24 9.87Q23.59 10.28 23.31 10.28L23.31 10.28L23.31 10.28Q23.20 10.28 23.11 10.22L23.11 10.22L23.11 10.22Q23.02 10.16 23.02 10.09L23.02 10.09L23.02 10.09Q23.02 10.02 23.40 9.86L23.40 9.86L23.40 9.86Q23.79 9.70 23.79 9.56L23.79 9.56L23.79 9.56Q23.79 9.49 23.58 9.49L23.58 9.49L23.58 9.49Q23.38 9.49 22.26 9.93L22.26 9.93L22.26 9.93Q21.14 10.37 21.14 10.56L21.14 10.56L21.14 10.56Q21.14 10.71 21.55 10.71ZM31.92 10.91L31.85 10.09L31.85 10.09Q29.08 13.90 28.29 13.90L28.29 13.90L28.29 13.90Q27.94 13.90 27.68 13.54L27.68 13.54L27.68 13.54Q27.20 12.87 27.20 11.97L27.20 11.97L27.20 11.97Q27.20 11.07 28.67 9.14L28.67 9.14L28.67 9.14Q30.14 7.21 31.80 5.66L31.80 5.66L31.80 5.66Q33.46 4.12 34.03 4.12L34.03 4.12L34.03 4.12Q34.37 4.12 34.59 4.49L34.59 4.49L34.59 4.49Q34.82 4.87 34.82 5.12L34.82 5.12L34.82 5.12Q34.82 5.38 34.68 5.69L34.68 5.69L34.68 5.69Q34.54 6.01 34.18 6.59L34.18 6.59L34.18 6.59Q33.82 7.18 33.54 7.62L33.54 7.62L33.54 7.62Q33.25 8.05 32.65 8.97L32.65 8.97L32.65 8.97Q34.19 8.65 34.82 8.55L34.82 8.55L34.82 8.55Q36.32 6.85 36.86 6.27L36.86 6.27L36.86 6.27Q37.39 5.70 38.04 5.05L38.04 5.05L38.04 5.05Q39.31 3.79 39.97 3.79L39.97 3.79L39.97 3.79Q40.10 3.79 40.17 3.88L40.17 3.88L40.17 3.88Q40.25 3.96 40.26 4.13L40.26 4.13L40.26 4.13Q40.14 4.69 39.82 5.17L39.82 5.17L39.82 5.17Q39.49 5.64 38.69 6.62L38.69 6.62L38.69 6.62Q37.88 7.59 37.24 8.47L37.24 8.47L37.24 8.47Q38.28 8.83 38.28 9.31L38.28 9.31L38.28 9.31Q38.28 9.49 38.14 9.60L38.14 9.60L38.14 9.60Q38.01 9.72 37.84 9.72L37.84 9.72L37.84 9.72Q37.66 9.73 37.10 9.75L37.10 9.75L37.10 9.75Q36.54 9.77 36.15 9.80L36.15 9.80L36.15 9.80Q35.98 9.81 35.36 10.70L35.36 10.70L35.36 10.70Q34.75 11.59 34.04 12.48L34.04 12.48L34.04 12.48Q33.33 13.37 32.94 13.37L32.94 13.37L32.94 13.37Q32.54 13.37 32.26 12.55L32.26 12.55L32.26 12.55Q31.99 11.73 31.92 10.91L31.92 10.91ZM32.44 10.40L32.44 10.40L32.62 11.40L32.62 11.40Q32.93 10.86 33.56 10.07L33.56 10.07L33.56 10.07Q33.53 10.07 33.42 10.08L33.42 10.08L33.42 10.08Q33.32 10.09 33.24 10.10L33.24 10.10L33.24 10.10Q33.15 10.11 33.03 10.13L33.03 10.13L33.03 10.13Q32.90 10.15 32.81 10.17L32.81 10.17L32.81 10.17Q32.72 10.19 32.62 10.23L32.62 10.23L32.62 10.23Q32.44 10.30 32.44 10.40ZM40.49 12.87L40.49 12.87L40.49 12.87Q40.49 12.94 40.59 12.96L40.59 12.96L40.59 12.96Q40.68 12.96 41.27 12.56L41.27 12.56L41.27 12.56Q41.85 12.17 41.92 12.12L41.92 12.12L41.92 12.12Q42 12.08 42.07 12.08L42.07 12.08L42.07 12.08Q42.27 12.08 42.27 12.27L42.27 12.27L42.27 12.27Q42.27 12.46 41.28 13.10L41.28 13.10L41.28 13.10Q40.29 13.75 39.89 13.75L39.89 13.75L39.89 13.75Q39.72 13.75 39.53 13.61L39.53 13.61L39.53 13.61Q39.34 13.47 39.34 13.28L39.34 13.28L39.34 13.28Q39.34 13.09 39.44 12.87L39.44 12.87L39.44 12.87Q39.54 12.64 39.54 12.56L39.54 12.56L39.54 12.56Q39.54 12.49 39.49 12.49L39.49 12.49L39.49 12.49Q39.45 12.49 39.41 12.52L39.41 12.52L39.41 12.52Q38.05 13.54 37.41 13.54L37.41 13.54L37.41 13.54Q37.04 13.54 36.83 13.27L36.83 13.27L36.83 13.27Q36.62 13.01 36.58 12.74L36.58 12.74L36.55 12.47L36.55 12.47Q36.55 12.01 36.91 11.40L36.91 11.40L36.91 11.40Q37.27 10.79 37.85 10.24L37.85 10.24L37.85 10.24Q38.43 9.69 39.28 9.31L39.28 9.31L39.28 9.31Q40.12 8.93 41.01 8.93L41.01 8.93L41.01 8.93Q41.48 8.93 41.89 9.18L41.89 9.18L41.89 9.18Q42.31 9.44 42.31 9.77L42.31 9.77L42.31 9.77Q42.31 10.11 41.65 10.18L41.65 10.18L41.65 10.18Q41.16 10.29 40.03 10.98L40.03 10.98L40.03 10.98Q38.91 11.68 38.91 12.04L38.91 12.04L38.91 12.04Q38.91 12.19 39.06 12.19L39.06 12.19L39.06 12.19Q39.34 12.19 40.38 11.40L40.38 11.40L40.38 11.40Q41.43 10.60 41.64 10.60L41.64 10.60L41.64 10.60Q41.85 10.60 41.85 10.85L41.85 10.85L41.85 10.85Q41.85 11.03 41.71 11.19L41.71 11.19L41.71 11.19Q41.58 11.35 41.52 11.42L41.52 11.42L41.52 11.42Q41.41 11.56 40.95 12.05L40.95 12.05L40.95 12.05Q40.49 12.53 40.49 12.87ZM42.34 14.03L42.34 14.03L42.34 14.03Q42.08 14.03 41.85 13.75L41.85 13.75L41.85 13.75Q41.62 13.47 41.62 13.24L41.62 13.24L41.62 13.24Q41.62 13.01 42.02 12.01L42.02 12.01L42.02 12.01Q42.42 11.02 43.06 10.06L43.06 10.06L43.06 10.06Q43.69 9.10 44.20 9.10L44.20 9.10L44.20 9.10Q44.52 9.10 44.78 9.40L44.78 9.40L44.78 9.40Q45.04 9.70 45.03 9.90L45.03 9.90L45.03 9.90Q45.02 10.09 44.61 10.81L44.61 10.81L44.61 10.81Q44.20 11.52 44.20 11.66L44.20 11.66L44.20 11.66Q44.20 11.80 44.26 11.80L44.26 11.80L44.26 11.80Q44.32 11.80 44.43 11.71L44.43 11.71L44.43 11.71Q44.53 11.62 44.92 11.24L44.92 11.24L44.92 11.24Q45.30 10.86 45.75 10.44L45.75 10.44L45.75 10.44Q46.20 10.02 46.72 9.58L46.72 9.58L46.72 9.58Q47.92 8.54 48.37 8.54L48.37 8.54L48.37 8.54Q48.54 8.54 48.69 8.74L48.69 8.74L48.69 8.74Q48.83 8.95 48.83 9.04L48.83 9.04L48.83 9.04Q48.83 9.14 48.76 9.16L48.76 9.16L48.76 9.16Q47.99 9.30 46.44 10.60L46.44 10.60L46.44 10.60Q45.01 11.80 44.02 12.73L44.02 12.73L44.02 12.73Q43.04 13.65 42.82 13.84L42.82 13.84L42.82 13.84Q42.60 14.03 42.34 14.03ZM49.06 10.71L49.06 10.71L49.74 10.64L49.74 10.64Q50.22 10.64 50.22 11.12L50.22 11.12L50.22 11.12Q50.22 11.37 49.76 11.68L49.76 11.68L49.76 11.68Q49.29 11.98 48.83 12.24L48.83 12.24L48.83 12.24Q48.36 12.50 48.36 12.64L48.36 12.64L48.36 12.64Q48.36 12.74 48.58 12.77L48.58 12.77L48.58 12.77Q49.07 12.77 50.44 11.98L50.44 11.98L50.44 11.98Q51.81 11.20 51.91 11.20L51.91 11.20L51.91 11.20Q52.11 11.20 52.11 11.40L52.11 11.40L52.11 11.40Q52.09 11.54 51.22 12.09L51.22 12.09L51.22 12.09Q50.34 12.64 49.18 13.15L49.18 13.15L49.18 13.15Q48.01 13.66 47.39 13.66L47.39 13.66L47.39 13.66Q46.42 13.66 46.42 12.64L46.42 12.64L46.42 12.64Q46.42 12.35 46.82 12.00L46.82 12.00L46.82 12.00Q47.22 11.65 47.62 11.40L47.62 11.40L47.62 11.40Q48.02 11.14 48.02 11.08L48.02 11.08L48.02 11.08Q48.02 11.02 47.82 10.93L47.82 10.93L47.82 10.93Q47.24 10.68 47.24 10.26L47.24 10.26L47.24 10.26Q47.24 9.48 48.55 8.77L48.55 8.77L48.55 8.77Q49.85 8.06 50.97 8.06L50.97 8.06L50.97 8.06Q51.59 8.06 52.00 8.29L52.00 8.29L52.00 8.29Q52.40 8.53 52.40 9.00L52.40 9.00L52.40 9.00Q52.40 9.46 51.75 9.87L51.75 9.87L51.75 9.87Q51.10 10.28 50.82 10.28L50.82 10.28L50.82 10.28Q50.71 10.28 50.62 10.22L50.62 10.22L50.62 10.22Q50.53 10.16 50.53 10.09L50.53 10.09L50.53 10.09Q50.53 10.02 50.91 9.86L50.91 9.86L50.91 9.86Q51.30 9.70 51.30 9.56L51.30 9.56L51.30 9.56Q51.30 9.49 51.09 9.49L51.09 9.49L51.09 9.49Q50.89 9.49 49.77 9.93L49.77 9.93L49.77 9.93Q48.65 10.37 48.65 10.56L48.65 10.56L48.65 10.56Q48.65 10.71 49.06 10.71ZM56.41 12.80L56.41 12.80L56.84 12.63L56.84 12.63Q57.04 12.63 57.04 12.78L57.04 12.78L57.04 12.78Q57.04 13.15 56.44 13.47L56.44 13.47L56.44 13.47Q55.85 13.80 55.31 13.80L55.31 13.80L55.31 13.80Q54.77 13.80 54.47 13.57L54.47 13.57L54.47 13.57Q54.18 13.34 54.18 12.87L54.18 12.87L54.18 12.87Q54.18 12.39 54.73 11.69L54.73 11.69L54.73 11.69Q54.80 11.62 54.80 11.57L54.80 11.57L54.80 11.57Q54.80 11.52 54.74 11.52L54.74 11.52L54.74 11.52Q54.68 11.52 54.64 11.55L54.64 11.55L54.64 11.55Q54.60 11.58 54.04 11.93L54.04 11.93L54.04 11.93Q52.70 12.78 52.12 13.12L52.12 13.12L52.12 13.12Q51.88 13.24 51.67 13.24L51.67 13.24L51.67 13.24Q51.46 13.24 51.21 12.98L51.21 12.98L51.21 12.98Q50.96 12.71 50.96 12.45L50.96 12.45L50.96 12.45Q50.96 11.89 52.54 10.39L52.54 10.39L52.54 10.39Q54.12 8.90 54.68 8.90L54.68 8.90L54.68 8.90Q54.89 8.93 55.05 9.14L55.05 9.14L55.05 9.14Q55.20 9.35 55.20 9.64L55.20 9.64L55.20 9.64Q55.20 9.93 54.99 10.26L54.99 10.26L54.99 10.26Q54.68 10.75 54.49 10.94L54.49 10.94L54.49 10.94Q54.31 11.13 54.31 11.18L54.31 11.18L54.31 11.18Q54.31 11.23 54.35 11.23L54.35 11.23L54.35 11.23Q54.39 11.23 54.47 11.18L54.47 11.18L54.47 11.18Q54.54 11.13 55.80 10.31L55.80 10.31L55.80 10.31Q57.05 9.49 57.20 9.40L57.20 9.40L57.20 9.40Q57.36 9.31 57.54 9.31L57.54 9.31L57.54 9.31Q57.72 9.31 58.02 9.48L58.02 9.48L58.02 9.48Q58.31 9.66 58.31 9.95L58.31 9.95L58.31 9.95Q58.31 10.25 57.80 10.82L57.80 10.82L57.80 10.82Q57.29 11.40 56.77 11.93L56.77 11.93L56.77 11.93Q56.25 12.46 56.25 12.68L56.25 12.68L56.25 12.68Q56.25 12.80 56.41 12.80Z"></path></g><!----><!----></svg>